<?xml version="1.0" encoding="UTF-8"?>
<!DOCTYPE svg PUBLIC "-//W3C//DTD SVG 1.1//EN" "http://www.w3.org/Graphics/SVG/1.1/DTD/svg11.dtd">
<svg xmlns="http://www.w3.org/2000/svg" version="1.1" width="200px" height="80px" style="shape-rendering:geometricPrecision; text-rendering:geometricPrecision; image-rendering:optimizeQuality; fill-rule:evenodd; clip-rule:evenodd" xmlns:xlink="http://www.w3.org/1999/xlink">
<g><path style="opacity:0.865" fill="#d09629" d="M 83.5,40.5 C 82.5655,41.5676 82.2322,42.901 82.5,44.5C 82.0893,47.5534 81.4226,50.5534 80.5,53.5C 78.2351,54.6474 75.9018,54.8141 73.5,54C 75.3692,48.6547 76.2025,43.1547 76,37.5C 71.8062,35.0042 68.4729,36.0042 66,40.5C 64.7139,45.0959 63.8806,49.7626 63.5,54.5C 61.1667,54.5 58.8333,54.5 56.5,54.5C 58.5,43.5 60.5,32.5 62.5,21.5C 64.8333,21.5 67.1667,21.5 69.5,21.5C 69.0893,24.5534 68.4226,27.5534 67.5,30.5C 71.3299,30.5086 75.3299,30.6753 79.5,31C 82.6201,33.4077 83.9534,36.5743 83.5,40.5 Z"/></g>
<g><path style="opacity:0.918" fill="#d0962a" d="M 18.5,22.5 C 19.1667,25.1667 19.8333,27.8333 20.5,30.5C 14.9252,29.5476 9.25858,29.2143 3.5,29.5C 3.00745,27.1944 2.67412,24.861 2.5,22.5C 7.83333,22.5 13.1667,22.5 18.5,22.5 Z"/></g>
<g><path style="opacity:1" fill="#eaa638" d="M 18.5,22.5 C 21.1194,22.2317 23.6194,22.565 26,23.5C 27.9938,30.4759 29.8271,37.4759 31.5,44.5C 32.1667,47.1667 32.8333,49.8333 33.5,52.5C 30.8806,52.7683 28.3806,52.435 26,51.5C 23.6929,44.6039 21.8595,37.6039 20.5,30.5C 19.8333,27.8333 19.1667,25.1667 18.5,22.5 Z"/></g>
<g><path style="opacity:0.991" fill="#faa604" d="M 37.5,22.5 C 38.0549,25.096 39.0549,27.4293 40.5,29.5C 40.4326,30.9587 40.7659,32.2921 41.5,33.5C 41.6741,35.861 42.0074,38.1944 42.5,40.5C 39.8333,40.5 37.1667,40.5 34.5,40.5C 33.1684,34.5063 31.8351,28.5063 30.5,22.5C 32.8333,22.5 35.1667,22.5 37.5,22.5 Z"/></g>
<g><path style="opacity:0.929" fill="#d09629" d="M 37.5,22.5 C 44.5,22.5 51.5,22.5 58.5,22.5C 58.7564,24.7925 58.4231,26.9592 57.5,29C 51.8431,29.4994 46.1764,29.6661 40.5,29.5C 39.0549,27.4293 38.0549,25.096 37.5,22.5 Z"/></g>
<g><path style="opacity:0.867" fill="#d09629" d="M 113.5,40.5 C 112.566,41.5676 112.232,42.901 112.5,44.5C 110.536,51.4944 105.869,55.1611 98.5,55.5C 91.2499,55.2462 87.2499,51.5795 86.5,44.5C 87.4345,43.4324 87.7678,42.099 87.5,40.5C 89.0866,33.4389 93.5866,30.1056 101,30.5C 108.003,30.3401 112.17,33.6734 113.5,40.5 Z M 99.5,35.5 C 106.075,36.6486 107.908,40.3153 105,46.5C 101.735,49.9241 98.2353,50.2575 94.5,47.5C 92.3533,41.8033 94.02,37.8033 99.5,35.5 Z"/></g>
<g><path style="opacity:0.864" fill="#d09629" d="M 143.5,40.5 C 142.566,41.5676 142.232,42.901 142.5,44.5C 140.976,51.3499 136.642,55.0166 129.5,55.5C 126.613,55.373 124.113,54.373 122,52.5C 121.229,55.8591 120.395,59.1925 119.5,62.5C 117.604,63.4656 115.604,63.7989 113.5,63.5C 114.113,57.1036 115.113,50.7703 116.5,44.5C 117.434,43.4324 117.768,42.099 117.5,40.5C 117.933,37.8344 118.433,35.1677 119,32.5C 119.839,31.3759 121.006,30.7092 122.5,30.5C 127.416,30.6862 132.416,30.8529 137.5,31C 141.13,33.0839 143.13,36.2506 143.5,40.5 Z M 129.5,35.5 C 136.458,36.4671 138.291,40.1338 135,46.5C 127.28,51.7695 123.613,49.7695 124,40.5C 125.406,38.2563 127.239,36.5897 129.5,35.5 Z"/></g>
<g><path style="opacity:0.885" fill="#d09629" d="M 170.5,40.5 C 169.566,41.5676 169.232,42.901 169.5,44.5C 163.463,44.1707 157.463,44.5041 151.5,45.5C 154.886,50.092 159.053,50.7587 164,47.5C 166.518,48.5314 167.351,50.1981 166.5,52.5C 158.734,57.0652 151.9,56.0652 146,49.5C 145.506,47.8659 145.34,46.1992 145.5,44.5C 145.5,43.1667 145.5,41.8333 145.5,40.5C 149.478,30.6086 156.478,27.7753 166.5,32C 169.078,34.2276 170.411,37.0609 170.5,40.5 Z M 156.5,35.5 C 160.224,34.7731 162.891,36.1064 164.5,39.5C 160.5,40.8333 156.5,40.8333 152.5,39.5C 153.549,37.7844 154.882,36.4511 156.5,35.5 Z"/></g>
<g><path style="opacity:0.837" fill="#d09629" d="M 176.5,44.5 C 179.309,44.0423 179.976,42.7089 178.5,40.5C 177.099,37.3661 175.432,34.3661 173.5,31.5C 175.765,30.3526 178.098,30.1859 180.5,31C 181.794,33.087 182.961,35.2537 184,37.5C 186.167,35.3333 188.333,33.1667 190.5,31C 192.902,30.1859 195.235,30.3526 197.5,31.5C 193.967,35.197 190.634,39.0304 187.5,43C 189.493,46.6508 191.493,50.3175 193.5,54C 191.167,54.6667 188.833,54.6667 186.5,54C 185,51.8333 183.5,49.6667 182,47.5C 179.412,53.9411 174.912,55.9411 168.5,53.5C 171.189,50.4802 173.856,47.4802 176.5,44.5 Z"/></g>
<g><path style="opacity:0.942" fill="#d09629" d="M 41.5,33.5 C 44.1667,33.5 46.8333,33.5 49.5,33.5C 49.552,35.9029 49.2186,38.2362 48.5,40.5C 46.5,40.5 44.5,40.5 42.5,40.5C 42.0074,38.1944 41.6741,35.861 41.5,33.5 Z"/></g>
<g><path style="opacity:1" fill="#faa604" d="M 49.5,33.5 C 52.1873,33.3359 54.854,33.5026 57.5,34C 56.0847,39.7432 54.918,45.5765 54,51.5C 51.6194,52.435 49.1194,52.7683 46.5,52.5C 46.8333,49.8333 47.1667,47.1667 47.5,44.5C 47.4326,43.0413 47.7659,41.7079 48.5,40.5C 49.2186,38.2362 49.552,35.9029 49.5,33.5 Z"/></g>
<g><path style="opacity:0.981" fill="#fba605" d="M 83.5,40.5 C 84.8333,40.5 86.1667,40.5 87.5,40.5C 87.7678,42.099 87.4345,43.4324 86.5,44.5C 85.1667,44.5 83.8333,44.5 82.5,44.5C 82.2322,42.901 82.5655,41.5676 83.5,40.5 Z"/></g>
<g><path style="opacity:0.979" fill="#fda702" d="M 113.5,40.5 C 114.833,40.5 116.167,40.5 117.5,40.5C 117.768,42.099 117.434,43.4324 116.5,44.5C 115.167,44.5 113.833,44.5 112.5,44.5C 112.232,42.901 112.566,41.5676 113.5,40.5 Z"/></g>
<g><path style="opacity:0.978" fill="#fca703" d="M 143.5,40.5 C 144.167,40.5 144.833,40.5 145.5,40.5C 145.5,41.8333 145.5,43.1667 145.5,44.5C 144.5,44.5 143.5,44.5 142.5,44.5C 142.232,42.901 142.566,41.5676 143.5,40.5 Z"/></g>
<g><path style="opacity:0.985" fill="#fca704" d="M 170.5,40.5 C 173.167,40.5 175.833,40.5 178.5,40.5C 179.976,42.7089 179.309,44.0423 176.5,44.5C 174.167,44.5 171.833,44.5 169.5,44.5C 169.232,42.901 169.566,41.5676 170.5,40.5 Z"/></g>
<g><path style="opacity:0.828" fill="#d0962a" d="M 31.5,44.5 C 36.8333,44.5 42.1667,44.5 47.5,44.5C 47.1667,47.1667 46.8333,49.8333 46.5,52.5C 42.1667,52.5 37.8333,52.5 33.5,52.5C 32.8333,49.8333 32.1667,47.1667 31.5,44.5 Z"/></g>
<g><path style="opacity:0.812" fill="#cf9629" d="M 29.5,54.5 C 36.3034,53.7348 38.3034,56.5681 35.5,63C 27.6831,64.1926 25.6831,61.3592 29.5,54.5 Z"/></g>
<g><path style="opacity:0.811" fill="#cf9629" d="M 43.5,54.5 C 50.2076,53.5342 52.5409,56.2009 50.5,62.5C 42.7512,64.8555 40.4179,62.1888 43.5,54.5 Z"/></g>
</svg>
